<?xml version="1.0" encoding="utf-8"?><!DOCTYPE svg PUBLIC "-//W3C//DTD SVG 1.1//EN" "http://www.w3.org/Graphics/SVG/1.1/DTD/svg11.dtd"><svg version="1.1" xmlns="http://www.w3.org/2000/svg" xmlns:xlink="http://www.w3.org/1999/xlink" width="32" height="32" viewBox="0 0 32 32" data-tags="android"><g fill="#444" transform="scale(0.03125 0.03125)"><path fill="rgb(164, 198, 57)" d="M944.896 393.685c0-34.773-28.075-63.061-62.976-63.061s-63.147 28.16-63.147 63.147v264.107c0 34.56 28.288 63.147 63.275 63.147 34.731 0 62.976-28.587 62.976-63.147v-264.533h-0.427zM230.101 342.699l0.171 409.6c0 37.76 30.037 67.84 67.115 67.84h45.355v139.947c0 34.987 28.16 63.232 62.72 63.232s62.592-28.16 63.147-62.635v-139.947h85.035v139.947c0 35.115 28.16 63.275 62.72 63.275 35.115 0 63.232-28.16 63.232-63.573v-139.947h45.995c37.12 0 67.115-30.293 67.115-67.328v-410.88l-562.731 0.469zM641.749 217.685c-13.227 0-23.893-10.667-23.893-23.893 0-13.013 10.667-23.808 23.893-23.893 13.227 0 23.893 10.88 23.893 23.893 0 13.227-10.667 23.893-23.893 23.893zM383.189 217.685c-13.227 0-23.893-10.667-23.893-23.893 0-13.099 10.667-23.808 23.893-23.808s23.893 10.88 23.893 24.32-10.752 24.192-24.32 24.192zM651.136 94.763l43.904-80.683c2.56-4.48 0.597-9.643-3.243-12.16-4.437-1.92-9.557-0.64-12.117 3.84l-44.8 81.067c-37.035-17.28-79.189-26.88-123.307-26.88s-86.101 9.173-123.392 25.728l-44.117-81.195c-2.261-4.181-7.68-5.76-11.861-3.413-4.267 1.92-5.803 7.68-3.413 11.52l43.947 80c-86.613 44.672-145.067 129.707-145.067 227.413h568.661c0-97.707-58.368-182.741-144.896-227.413zM142.080 330.325c-34.859 0-63.147 28.373-63.147 63.275v264.192c0 34.987 28.331 63.147 63.317 63.147 34.731 0 63.019-28.16 63.019-63.147v-264.107c0-34.773-28.16-63.061-62.72-63.061z" /></g></svg>