<?xml version="1.0" encoding="utf-8"?><!DOCTYPE svg PUBLIC "-//W3C//DTD SVG 1.1//EN" "http://www.w3.org/Graphics/SVG/1.1/DTD/svg11.dtd"><svg version="1.1" xmlns="http://www.w3.org/2000/svg" xmlns:xlink="http://www.w3.org/1999/xlink" width="32" height="32" viewBox="0 0 32 32" data-tags="arduino"><g fill="#444" transform="scale(0.03125 0.03125)"><path fill="rgb(0, 151, 157)" d="M1016.32 512c-2.614-134.183-112.006-241.958-246.569-241.958-1.516 0-3.028 0.014-4.537 0.041l0.227-0.003c-12.373 0-25.6 0.853-38.4 2.133-107.52 15.787-179.2 93.013-218.88 152.32-40.533-59.307-112.64-136.533-219.307-152.32-12.8-1.28-25.6-2.133-38.4-2.133-1.155-0.019-2.518-0.031-3.884-0.031-134.561 0-243.952 107.771-246.565 241.706l-0.004 0.244c2.618 134.18 112.008 241.951 246.569 241.951 1.366 0 2.729-0.011 4.090-0.033l-0.205 0.003c12.8 0 25.6-0.853 39.253-2.56 107.52-15.36 179.2-92.587 219.307-151.893 40.533 59.307 112.213 136.533 219.307 152.32 13.227 1.28 25.6 2.133 38.827 2.133 0.774 0.009 1.689 0.014 2.604 0.014 134.555 0 243.942-107.761 246.565-241.688l0.004-0.245zM276.48 665.6c-8.533 1.707-18.347 1.707-26.88 1.707-1.036 0.024-2.257 0.038-3.481 0.038-87.2 0-158.193-69.387-160.78-155.96l-0.006-0.238c2.824-86.859 73.915-156.198 161.2-156.198 1.228 0 2.454 0.014 3.675 0.041l-0.182-0.003c8.533 0 17.92 0.853 26.88 1.707 101.12 14.933 162.987 113.92 183.893 154.453-21.333 40.533-83.2 140.8-183.893 154.453zM554.667 512c20.907-39.68 82.773-139.52 183.893-154.453 8.533-1.707 17.92-1.707 26.453-1.707 1.415-0.045 3.078-0.070 4.748-0.070 87.126 0 158.030 69.453 160.367 156.014l0.005 0.216c-2.824 86.859-73.915 156.198-161.2 156.198-1.228 0-2.454-0.014-3.675-0.041l0.182 0.003c-8.533 0-17.92-0.853-26.453-1.707-100.693-14.933-162.987-114.773-183.893-154.453zM179.627 537.173h151.040v-49.493h-150.613v49.493zM782.507 537.173h50.773v-49.493h-51.2v-50.773h-48.213v51.2h-51.2v49.067h51.2v50.347h49.067v-49.92zM1024 301.227c0 12.8-9.387 21.76-22.613 21.76-0.256 0.011-0.556 0.017-0.857 0.017-11.874 0-21.526-9.51-21.756-21.329l-0-0.021c0-11.947 10.24-22.187 22.613-22.187 13.227 0 22.613 9.387 22.613 21.76zM985.173 301.227c0 9.387 6.827 17.067 17.067 17.067 9.387 0 16.213-7.68 16.213-17.067s-6.827-17.067-16.213-17.067c-10.24-0.853-17.067 6.827-17.067 17.067zM997.973 312.32h-4.267v-22.187l8.533-0.427c3.84 0 5.973 0.427 7.68 1.28s2.56 2.56 2.56 4.693c0 2.56-1.707 4.267-4.693 4.693 2.133 0.853 2.987 2.56 3.84 5.547l1.28 5.547h-5.12c-0.853-0.853-0.853-2.987-1.707-5.547-0.853-2.133-1.707-2.987-4.693-2.987h-2.133l-0.853 9.387zM998.827 299.52h2.56c2.987 0 4.267-0.427 4.267-2.987 0-2.133-1.28-2.987-4.267-2.987h-2.987v5.973h0.427z" /></g></svg>