<?xml version="1.0" encoding="utf-8"?><!DOCTYPE svg PUBLIC "-//W3C//DTD SVG 1.1//EN" "http://www.w3.org/Graphics/SVG/1.1/DTD/svg11.dtd"><svg version="1.1" xmlns="http://www.w3.org/2000/svg" xmlns:xlink="http://www.w3.org/1999/xlink" width="32" height="32" viewBox="0 0 32 32" data-tags="php"><g fill="#444" transform="scale(0.03125 0.03125)"><path fill="rgb(119, 123, 180)" d="M299.093 435.499h-40.277l-21.973 112.981h35.755c23.723 0 41.387-4.48 52.992-13.397 11.605-8.96 19.413-23.851 23.467-44.757 3.925-20.053 2.133-34.219-5.291-42.453-7.467-8.235-22.315-12.373-44.672-12.373zM512 242.688c-282.752 0-512 120.576-512 269.312s229.248 269.355 512 269.355 512-120.619 512-269.355c0-148.736-229.248-269.312-512-269.312zM372.907 560.597c-11.136 10.667-24.533 18.688-39.125 23.509-14.336 4.608-32.64 6.997-54.827 6.997h-50.389l-13.952 71.723h-58.795l52.48-269.909h113.067c34.005 0 58.795 8.917 74.411 26.795 15.616 17.835 20.309 42.752 14.080 74.752-2.612 13.597-7.129 25.708-13.328 36.748l0.314-0.609c-6.101 10.88-14.080 20.907-23.936 29.995zM544.597 591.104l23.168-119.424c2.688-13.568 1.664-22.869-2.901-27.776-4.565-4.949-14.336-7.424-29.312-7.424h-46.592l-30.037 154.667h-58.368l52.48-269.952h58.325l-13.952 71.765h51.968c32.725 0 55.253 5.717 67.669 17.109s16.128 29.867 11.221 55.424l-24.405 125.611h-59.264zM868.736 494.464c-2.567 13.593-7.088 25.709-13.321 36.73l0.308-0.591c-6.101 10.88-14.080 20.907-23.936 29.995-10.802 10.323-23.878 18.366-38.392 23.293l-0.733 0.216c-14.336 4.608-32.64 6.997-54.869 6.997h-50.347l-13.952 71.765h-58.795l52.48-269.909h113.024c34.005 0 58.795 8.917 74.411 26.795 15.616 17.792 20.352 42.709 14.123 74.709zM758.016 435.499h-40.235l-22.016 112.981h35.755c23.765 0 41.429-4.48 52.992-13.397 11.605-8.96 19.413-23.851 23.509-44.757 3.925-20.053 2.091-34.219-5.333-42.453s-22.357-12.373-44.672-12.373z" /></g></svg>