<?xml version="1.0" encoding="utf-8"?><!DOCTYPE svg PUBLIC "-//W3C//DTD SVG 1.1//EN" "http://www.w3.org/Graphics/SVG/1.1/DTD/svg11.dtd"><svg version="1.1" xmlns="http://www.w3.org/2000/svg" xmlns:xlink="http://www.w3.org/1999/xlink" width="32" height="32" viewBox="0 0 32 32" data-tags="raspberrypi"><g fill="#444" transform="scale(0.03125 0.03125)"><path fill="rgb(197, 26, 74)" d="M687.403 739.755c-36.565 42.197-56.917 119.040-30.251 143.829 25.429 19.157 93.909 16.683 144.427-52.48 36.693-46.080 24.277-123.435 3.456-143.872-31.147-23.68-75.861 6.997-117.632 53.035v-0.512zM343.637 752.555c-38.741-44.373-89.088-70.741-121.643-51.157-21.76 16.299-25.813 71.893 5.248 126.592 45.995 65.024 110.763 71.637 137.429 55.765 28.117-20.821 12.8-91.179-21.035-131.2zM518.784 886.741c-47.061-1.109-119.381 18.731-118.443 44.032-0.768 17.195 56.789 67.072 115.413 64.555 56.576 1.28 115.157-48.597 114.432-70.357-0.171-22.315-63.915-39.552-111.232-37.717l-0.171-0.512zM515.584 291.797c-54.4-1.365-106.752 39.808-106.752 63.701-0.171 29.013 43.008 58.709 107.093 59.477 65.835 0.427 107.435-23.851 108.032-53.76 0.683-33.877-59.477-69.931-107.435-69.419h-0.939zM384.555 314.496c-91.093-14.72-166.955 38.4-163.925 136.192 2.987 37.717 197.547-129.749 163.968-135.552l-0.043-0.64zM800.512 453.205c3.029-97.152-72.917-150.229-164.011-135.509-33.579 5.76 160.939 173.269 164.011 135.509zM816.043 488.363c-52.864-14.037-17.92 215.424 25.088 196.907 47.317-37.077 62.549-147.029-25.088-196.267v-0.64zM180.395 687.829c42.965 19.2 77.952-210.304 25.131-196.267-87.595 49.195-72.448 159.147-25.131 196.907v-0.64zM582.101 434.048c-48.896 32-57.771 103.595-19.669 159.829 38.016 56.235 108.501 77.355 157.483 45.995 48.896-31.275 57.728-102.912 19.712-159.829-38.059-56.875-108.587-77.355-157.525-45.355v-0.64zM450.005 439.808c-48.896-31.317-119.424-10.837-157.397 45.397-38.059 56.917-29.269 128.512 19.669 160.469s119.424 11.477 157.483-45.397c37.76-56.235 28.8-127.872-19.84-159.787l0.085-0.683zM636.416 745.387c-0.384-59.435-53.419-107.435-118.656-106.752-65.152 0.683-117.803 48.597-117.504 108.032v1.237c0.427 59.477 53.504 107.392 118.741 106.752 65.152 0 117.589-48.555 116.992-107.392v-1.237l0.427-0.64zM773.333 99.712c-98.432 50.517-155.819 90.795-187.264 125.355 16.085 63.915 100.011 66.475 130.688 64.512-6.272-2.56-11.563-6.357-13.44-11.477 7.68-5.12 35.029-0.683 54.101-10.88-7.296-1.28-10.752-2.603-14.037-8.32 17.877-5.76 37.333-10.24 48.683-19.84-6.101 0-11.861 1.28-19.925-3.84 16.085-8.277 33.195-15.317 46.72-28.075-8.363 0-17.323 0-19.883-3.2 14.763-8.96 27.093-18.56 37.419-30.037-11.605 1.92-16.64 0.683-19.371-1.28 11.136-10.88 25.301-20.437 31.957-34.56-8.661 3.243-16.683 3.84-22.272 0 3.883-8.277 20.053-13.397 29.44-33.237-9.173 1.28-18.816 1.963-20.736 0 4.181-16.597 11.477-26.155 18.56-36.437-19.499 0-49.067 0-47.659-1.237l12.075-12.16c-19.115-5.12-38.571 0.64-52.736 5.12-6.357-4.48 0-10.88 7.893-17.28-16.64 2.603-31.275 5.76-44.117 10.923-6.997-6.4 4.48-12.16 10.24-18.603-25.557 5.12-35.797 11.52-46.677 17.92-7.68-7.040-0.64-13.397 4.437-19.157-19.157 6.997-28.757 15.957-38.997 24.235-3.84-4.437-8.917-7.637-2.56-19.157-13.397 7.68-23.637 16.64-31.317 26.837-8.277-5.717-5.077-12.757-5.077-19.157-14.080 11.52-23.040 23.040-33.877 34.603-2.603-1.323-4.48-6.4-5.76-14.763-33.237 32-80.597 111.915-12.16 143.189 57.557-46.677 127.189-81.195 203.904-106.795l1.749-3.2zM250.283 99.712c76.715 25.6 145.877 60.075 203.819 107.435 68.096-32 21.035-111.915-12.032-143.189-1.749 8.277-3.627 14.037-5.76 15.317-10.88-11.52-19.712-23.040-33.621-34.56 0 6.4 3.285 14.080-4.992 19.2-7.467-10.197-17.493-19.2-30.933-26.88 6.357 10.923 1.067 14.080-2.389 19.157-10.24-9.6-19.84-18.517-38.357-25.557 5.12 6.357 12.8 12.8 5.12 19.84-10.197-6.357-21.077-12.8-45.995-17.92 5.76 6.357 17.237 12.8 10.155 19.2-13.44-5.205-28.16-9.045-44.16-11.008 7.723 6.4 14.592 12.331 8.192 17.28-14.72-5.12-34.389-10.88-53.547-5.76l12.117 12.117c1.28 1.579-28.117 1.28-47.829 1.493 7.040 9.6 14.379 19.157 18.56 36.437-1.92 1.92-11.52 0.683-20.608 0 9.6 19.157 25.557 24.32 29.355 32.64-5.76 4.096-13.397 3.2-22.315 0 6.997 13.397 21.077 22.997 31.915 34.56-3.157 1.877-7.68 3.157-19.797 1.579 10.197 11.093 22.357 21.077 37.077 30.037-2.56 2.987-11.563 2.944-20.437 3.2 13.397 12.971 30.677 19.797 46.677 28.288-8.32 5.803-14.080 4.48-19.84 4.48 10.88 9.6 30.72 14.037 48.597 19.797-3.84 5.76-6.997 7.040-14.677 8.32 19.157 10.837 45.995 5.76 53.675 11.52-1.92 5.077-6.997 8.917-13.397 11.52 30.677 1.92 115.072-0.64 131.072-64.597-31.403-34.432-88.917-74.752-187.349-124.629l1.707 0.683zM324.267 4.395c10.069-0.299 18.603 5.76 27.819 8.576 22.571-7.253 27.733 2.688 38.827 6.784 24.619-5.12 32.085 6.016 43.904 17.877l13.739-0.384c37.077 21.632 55.68 65.536 62.165 88.107 6.485-22.571 24.917-66.517 62.165-88.107l13.696 0.299c11.819-12.075 19.328-22.997 43.904-17.835 11.136-4.48 16.213-14.080 38.869-7.083 14.080-4.437 26.453-16 45.099-1.92 15.701-6.357 30.976-8.32 44.587 3.84 21.12-2.56 27.861 2.603 33.024 8.96 4.608 0 34.517-4.437 48.299 15.36 34.56-3.84 45.397 19.797 33.024 42.155 7.040 10.88 14.379 21.077-2.133 41.6 6.4 11.477 2.645 23.595-11.52 38.955 3.883 15.957-3.157 26.88-15.957 35.797 2.56 21.76-20.48 34.56-26.837 38.997-2.603 12.8-7.723 24.917-33.92 31.317-3.797 19.157-19.797 22.315-35.157 26.197 50.56 28.8 93.355 66.475 93.355 159.189l7.723 12.757c57.557 34.517 109.312 145.152 28.757 235.264-5.077 28.117-14.037 47.957-21.803 70.315-11.477 90.155-88.832 132.309-109.269 137.429-29.397 22.4-61.355 43.52-104.192 58.155-40.192 41.003-84.309 57.003-127.744 57.003h-3.925c-44.075 0-88.021-16-128.512-56.96-42.965-14.677-74.837-35.755-104.405-58.155-20.437-5.12-97.408-47.232-109.312-137.429-7.979-22.357-16.811-42.837-22.101-70.912-80.811-90.155-29.056-200.747 28.416-235.307l7.339-12.8c0-92.672 42.88-130.432 93.355-159.147-15.317-3.84-30.72-7.040-35.115-26.24-26.24-6.4-31.36-18.517-33.92-31.317-6.4-4.48-29.397-17.237-26.837-39.595-12.8-9.003-19.84-19.84-16-36.437-13.397-14.763-17.237-27.52-11.52-39.040-16.64-20.437-8.917-31.275-1.92-41.557-12.16-22.4-1.28-46.677 33.237-42.837 13.397-19.84 43.52-15.317 47.915-15.317 5.163-6.4 12.16-12.16 33.237-9.6 13.397-12.16 28.8-10.24 44.757-4.352 6.443-5.12 12.203-6.997 17.323-6.997l-2.432 4.395z" /></g></svg>